<svg width="76" height="56" viewBox="0 0 76 56" fill="none" xmlns="http://www.w3.org/2000/svg">
    <path
        d="M58.3013 11.8349L59.0142 10.773L60.2506 11.5152L60.7959 11.9026C62.1199 12.9105 64.9 15.4905 65.5033 19.7619C66.5543 19.5788 67.6176 19.4845 68.6833 19.4797C71.2057 19.4797 72.8991 20.0624 73.8642 20.5405L74.3568 20.8094L74.6798 21.02L75.583 21.748L75.2738 22.6821C74.7808 23.9705 74.0208 25.1324 73.0475 26.0861C71.6808 27.4816 69.2763 29.129 65.4504 29.3423L64.6087 29.3657H63.9123C62.1646 33.9289 59.8147 39.0633 55.8703 43.6739C53.511 46.4306 50.7361 48.7758 47.6527 50.6196C43.9106 52.8074 39.8405 54.3339 35.6109 55.1357C32.5684 55.7201 29.4792 56.0094 26.3843 55.9998C19.5336 55.9998 13.4899 54.6554 9.77001 52.3031C6.45037 50.2094 3.89879 46.789 2.18371 42.1447C0.684073 37.9155 -0.0548844 33.4389 0.00317366 28.9356C0.00970128 27.7049 0.896908 26.6904 2.04642 26.5286L2.36597 26.5059H52.1536L52.592 26.476L53.2939 26.3991C54.5056 26.2421 56.3461 25.8851 57.6441 25.1382C56.0915 22.6048 55.6521 19.641 56.3746 16.4856C56.6807 15.1642 57.1589 13.8936 57.7949 12.7078L58.3013 11.8349ZM13.6542 17.6583L13.8398 17.6901C14.0131 17.7507 14.1496 17.8933 14.2065 18.0729L14.2351 18.2632V24.3992L14.2055 24.5892C14.1477 24.7685 14.0104 24.9104 13.8367 24.9699L13.6526 25.0008H6.98086C6.72343 25.0008 6.50506 24.8283 6.42804 24.5892L6.39835 24.3992V18.2615L6.42804 18.0697C6.48582 17.8905 6.62307 17.7487 6.79671 17.689L6.98086 17.6583H13.6542ZM22.8482 17.6583L23.0338 17.6901C23.2071 17.7507 23.3437 17.8933 23.4005 18.0729L23.4292 18.2632V24.3992L23.3995 24.5892C23.3417 24.7685 23.2044 24.9104 23.0308 24.9699L22.8466 25.0008H16.1749C15.9171 25.0008 15.698 24.8287 15.6197 24.5895L15.589 24.3992V18.2632C15.589 17.9959 15.7568 17.7692 15.9896 17.6892L16.1748 17.6583H22.8482ZM32.1822 17.6583L32.3677 17.6901C32.5409 17.7507 32.6776 17.8933 32.7343 18.0729L32.7632 18.2632V24.3992L32.7333 24.5892C32.6756 24.7685 32.5385 24.9104 32.3646 24.9699L32.1805 25.0008H25.5088C25.2515 25.0008 25.033 24.8283 24.9559 24.5892L24.9261 24.3992V18.2615L24.9559 18.0697C25.0136 17.8905 25.1509 17.7487 25.3245 17.689L25.5087 17.6583H32.1822ZM41.404 17.6583L41.5892 17.6892C41.7637 17.7492 41.9018 17.8917 41.9599 18.072L41.9898 18.2632V24.3992C41.9884 24.6655 41.8204 24.8905 41.5885 24.9702L41.404 25.0008H34.7321C34.4748 25.0008 34.2563 24.8283 34.1793 24.5892L34.1494 24.3992V18.2615L34.1793 18.0697C34.237 17.8905 34.3745 17.7487 34.548 17.689L34.7321 17.6583H41.404ZM50.7086 17.6583L50.8938 17.6892C51.0683 17.7492 51.2064 17.8917 51.2645 18.072L51.2944 18.2632V24.3992C51.293 24.6655 51.125 24.8905 50.8931 24.9702L50.7086 25.0008H44.0367C43.7794 25.0008 43.5612 24.8283 43.4839 24.5892L43.4544 24.3992V18.2615L43.4839 18.0697C43.5416 17.8905 43.6791 17.7487 43.8526 17.689L44.0367 17.6583H50.7086ZM22.8466 8.83091L23.0308 8.86159C23.2044 8.92123 23.3417 9.06298 23.3995 9.24225L23.4292 9.43238V15.5683C23.4292 15.8344 23.2626 16.0607 23.031 16.1414L22.8466 16.1731H16.1749C15.9166 16.1716 15.6978 15.9988 15.6197 15.759L15.5891 15.5683V9.43238C15.5905 9.16615 15.7584 8.94095 15.9904 8.86152L16.1749 8.83091H22.8466ZM32.1805 8.83091L32.3646 8.86159C32.5381 8.92123 32.6756 9.06298 32.7333 9.24225L32.7632 9.43238V15.5683C32.7632 15.8344 32.5965 16.0607 32.365 16.1414L32.1805 16.1731H25.5088C25.251 16.1716 25.0329 15.9983 24.9559 15.7587L24.9262 15.5683V9.43238L24.956 9.24229C25.0138 9.06305 25.151 8.92126 25.3246 8.86159L25.5088 8.83091H32.1805ZM41.404 8.83091C41.6617 8.83091 41.8809 9.00286 41.9589 9.24205L41.9898 9.43238V15.5683C41.9884 15.8349 41.8208 16.0609 41.5885 16.1415L41.404 16.1731H34.7321C34.4744 16.1716 34.2563 15.9983 34.1793 15.7587L34.1494 15.5683V9.43238L34.1793 9.24229C34.237 9.06305 34.3745 8.92126 34.548 8.86159L34.7321 8.83091H41.404ZM41.404 0C41.6617 0 41.8809 0.171951 41.9589 0.411102L41.9898 0.601468V6.74083C41.9884 7.00699 41.8204 7.23223 41.5885 7.31169L41.404 7.3423H34.7321C34.4748 7.3423 34.2563 7.16994 34.1793 6.93089L34.1494 6.74073V0.601468L34.1793 0.411309C34.237 0.23204 34.3745 0.0903223 34.548 0.0306461L34.7321 0H41.404Z"
        fill="#000001" />
</svg>