<svg width="50" height="56" viewBox="0 0 50 56" fill="none" xmlns="http://www.w3.org/2000/svg">
    <path
        d="M0.672241 36.1183L15.2182 8.40043L29.5281 0.730469L33.7841 2.87846L19.5601 10.9144L34.2561 55.0902L29.5281 52.3402L18.5282 26.9863L4.08822 37.9443L0.672241 36.1183Z"
        fill="white" />
    <path
        d="M43.1941 28.9404C46.1609 28.9404 48.566 26.6991 48.566 23.9344C48.566 21.1697 46.1609 18.9284 43.1941 18.9284C40.2272 18.9284 37.8221 21.1697 37.8221 23.9344C37.8221 26.6991 40.2272 28.9404 43.1941 28.9404Z"
        fill="white" />
    <path
        d="M47.1141 21.7004C46.6309 21.0146 45.9786 20.4653 45.2205 20.1061C44.4624 19.7468 43.6242 19.5897 42.7875 19.6501C41.9507 19.7105 41.1438 19.9863 40.4451 20.4507C39.7464 20.9151 39.1797 21.5523 38.8001 22.3004C38.4266 23.1055 38.3068 24.0051 38.4564 24.8799C38.6061 25.7547 39.0182 26.5633 39.6381 27.1984C41.337 27.3339 43.0279 26.8527 44.4009 25.843C45.7739 24.8332 46.7371 23.3626 47.1141 21.7004ZM32.6661 2.80052L29.5721 1.10253L16.1002 8.60049L17.1742 9.18049L19.2162 10.2545L22.9142 8.20049L32.6681 2.76452L32.6661 2.80052ZM33.9121 2.28452C33.9923 2.30409 34.0661 2.344 34.1264 2.40041C34.1866 2.45681 34.2313 2.5278 34.2561 2.60652L38.7681 15.9205C38.8143 16.0261 38.8178 16.1454 38.7779 16.2535C38.738 16.3617 38.6578 16.4502 38.5541 16.5005C36.8322 17.4455 35.4795 18.9439 34.7151 20.7533C33.9507 22.5627 33.8193 24.5771 34.3421 26.4704C34.9662 28.5309 36.292 30.3079 38.0894 31.493C39.8868 32.6781 42.0423 33.1966 44.1821 32.9584C44.2995 32.9509 44.4164 32.9799 44.5166 33.0415C44.6169 33.1031 44.6957 33.1942 44.7421 33.3024L49.404 46.9683C49.4342 47.0784 49.4297 47.1951 49.391 47.3025C49.3524 47.4099 49.2815 47.5027 49.188 47.5683L34.8581 55.9463C34.7899 55.9757 34.7164 55.9907 34.6421 55.9903C34.5099 56.015 34.3733 55.9923 34.2561 55.9263L29.2281 52.7663C29.1365 52.7187 29.0618 52.6439 29.0141 52.5523L19.1942 29.9724L4.24027 38.4803C4.15099 38.5259 4.05286 38.5515 3.9527 38.5553C3.85253 38.5591 3.75274 38.541 3.66027 38.5023L0.260287 36.5684C0.149112 36.5087 0.0649987 36.4087 0.0252052 36.2889C-0.0145883 36.1692 -0.00704479 36.0387 0.046288 35.9244L14.5742 8.35649C14.6286 8.26223 14.7111 8.18738 14.8102 8.14249L29.2921 0.0645332C29.3715 0.0221638 29.4601 0 29.5501 0C29.6401 0 29.7287 0.0221638 29.8081 0.0645332L33.9121 2.28452ZM15.9502 9.68849L15.2402 9.32449L1.24028 35.9884L3.79627 37.4284L15.8722 21.6284C15.9314 21.5556 16.0071 21.498 16.093 21.4605C16.1789 21.4229 16.2726 21.4064 16.3662 21.4124C16.458 21.429 16.5446 21.4667 16.6193 21.5226C16.6939 21.5785 16.7545 21.651 16.7962 21.7344L29.9461 52.0303L33.4601 54.2003L19.3442 12.9345L18.7442 11.2145L15.9302 9.66849L15.9502 9.68849ZM37.6081 25.5884C37.2864 24.3992 37.3768 23.1362 37.8645 22.005C38.3523 20.8737 39.2086 19.9409 40.2941 19.3584C41.3951 18.7426 42.6638 18.4939 43.9159 18.6486C45.1679 18.8033 46.338 19.3532 47.2561 20.2184C48.2955 21.2172 48.8958 22.5879 48.925 24.0291C48.9543 25.4704 48.4101 26.8642 47.4121 27.9044L47.2561 28.0604C46.536 28.7498 45.6521 29.2443 44.6879 29.4971C43.7236 29.75 42.7108 29.7528 41.7452 29.5054C40.7795 29.2579 39.8929 28.7684 39.169 28.0831C38.4451 27.3977 37.9079 26.5391 37.6081 25.5884Z"
        fill="black" />
</svg>