<svg width="45" height="46" viewBox="0 0 45 46" fill="none" xmlns="http://www.w3.org/2000/svg">
    <path
        d="M43.7333 20.7833L24.7167 1.76665C24.1333 1.18331 23.3167 0.833313 22.5 0.833313C21.6833 0.833313 20.8667 1.18331 20.2833 1.76665L16.2 5.84998L20.9833 10.6333C21.45 10.4 21.9167 10.2833 22.5 10.2833C24.4833 10.2833 26 11.8 26 13.7833C26 14.3666 25.8833 14.8333 25.65 15.3L30.3167 19.9666C30.7833 19.7333 31.25 19.6166 31.8333 19.6166C33.8167 19.6166 35.3333 21.1333 35.3333 23.1166C35.3333 25.1 33.8167 26.6166 31.8333 26.6166C29.85 26.6166 28.3333 25.1 28.3333 23.1166C28.3333 22.5333 28.45 22.0666 28.6833 21.6L24.0167 16.9333C23.9 16.9333 23.7833 17.05 23.6667 17.05V29.1833C25.0667 29.65 26 30.9333 26 32.45C26 34.4333 24.4833 35.95 22.5 35.95C20.5167 35.95 19 34.4333 19 32.45C19 30.9333 19.9333 29.65 21.3333 29.1833V16.9333C19.9333 16.4666 19 15.1833 19 13.6666C19 13.0833 19.1167 12.6166 19.35 12.15L14.5667 7.36665L1.26666 20.7833C0.683328 21.3666 0.333328 22.1833 0.333328 23C0.333328 23.8166 0.683328 24.6333 1.26666 25.2166L20.2833 44.2333C20.8667 44.8167 21.6833 45.1666 22.5 45.1666C23.3167 45.1666 24.1333 44.8167 24.7167 44.2333L43.7333 25.2166C44.3167 24.6333 44.6667 23.8166 44.6667 23C44.6667 22.1833 44.3167 21.3666 43.7333 20.7833Z"
        fill="currentColor" />
</svg>