<svg width="54" height="56" viewBox="0 0 54 56" fill="none" xmlns="http://www.w3.org/2000/svg">
    <path fill-rule="evenodd" clip-rule="evenodd"
        d="M31.4546 0.929016C31.0717 0.929016 30.7161 1.01397 30.3878 1.12723C31.0853 1.60862 31.4683 2.24575 31.6598 2.96782C31.6735 3.06693 31.7008 3.13772 31.7145 3.23682C31.7282 3.32178 31.7418 3.40673 31.7418 3.49168C31.7966 4.73761 31.4273 4.89335 31.1674 5.62959C30.7708 6.5782 30.8802 7.5976 31.3589 8.41879C31.3999 8.51789 31.4546 8.63116 31.523 8.73027C31.0033 5.1482 33.8891 4.61019 34.4225 3.49168C34.4635 2.51475 33.684 1.86347 33.0685 1.4104C32.4804 1.04228 31.947 0.929016 31.4546 0.929016ZM35.8039 1.73604C35.7492 2.06168 35.7902 1.97673 35.7766 2.14664C35.7629 2.2599 35.7629 2.40149 35.7492 2.51475C35.7219 2.62802 35.6945 2.74128 35.6535 2.85456C35.6261 2.96782 35.5851 3.08109 35.5441 3.19435C35.4893 3.30762 35.4483 3.40673 35.3936 3.51999C35.3526 3.57665 35.3252 3.63326 35.2842 3.6899C35.2569 3.73237 35.2295 3.77485 35.2021 3.81732C35.1338 3.91643 35.0654 4.01554 34.997 4.10049C34.9149 4.18544 34.8465 4.28454 34.7508 4.35534V4.36952C34.6687 4.44031 34.5867 4.52526 34.4909 4.59605C34.2037 4.82258 33.8755 4.99248 33.5746 5.20486C33.4788 5.27565 33.3831 5.33228 33.301 5.41723C33.2053 5.48802 33.1232 5.55881 33.0412 5.64377C32.9454 5.72871 32.8771 5.81367 32.795 5.91278C32.7266 5.99773 32.6446 6.09683 32.5898 6.19594C32.5215 6.29505 32.4531 6.39416 32.3984 6.49327C32.3436 6.60653 32.3026 6.70564 32.2479 6.81891C32.2069 6.93217 32.1659 7.03128 32.1385 7.14455C32.0975 7.27197 32.0701 7.38524 32.0428 7.49851C32.0291 7.55517 32.0291 7.62593 32.0154 7.68257C32.0017 7.73922 32.0017 7.79583 31.9881 7.85247C31.9881 7.96573 31.9744 8.09316 31.9744 8.20642C31.9744 8.29138 31.9744 8.37633 31.9881 8.46128C31.9881 8.57454 32.0018 8.68781 32.0291 8.81523C32.0428 8.9285 32.0702 9.04177 32.0975 9.15504C32.1385 9.2683 32.1659 9.38157 32.2069 9.49483C32.2343 9.56563 32.2753 9.63642 32.3027 9.69305L29.157 8.43296C28.6236 8.27722 28.1038 8.13564 27.5704 8.00821C27.2832 7.93742 26.996 7.86663 26.7088 7.79583C25.8882 7.62593 25.0539 7.49851 24.2196 7.41356C24.1923 7.41356 24.1786 7.39938 24.1512 7.39938C23.3306 7.31444 22.5236 7.27196 21.703 7.27196C21.1012 7.27196 20.4994 7.30025 19.9113 7.34275C19.077 7.39941 18.2427 7.51265 17.4085 7.65423C17.2033 7.68253 16.9981 7.72503 16.793 7.7675C16.369 7.85245 15.9587 7.95156 15.5621 8.05067C15.3569 8.10733 15.1518 8.16394 14.9466 8.22057C14.7414 8.30552 14.55 8.40463 14.3585 8.48958C14.208 8.56037 14.0576 8.63116 13.9072 8.70195C13.8798 8.71613 13.8524 8.71613 13.8388 8.73025C13.702 8.80104 13.5789 8.85767 13.4558 8.92847C13.4148 8.94264 13.3874 8.95676 13.3601 8.97094C13.2096 9.04173 13.0592 9.12668 12.9361 9.19747C12.8403 9.23995 12.7446 9.29658 12.6625 9.33906C12.6215 9.36735 12.5668 9.39571 12.5395 9.40985C12.4164 9.48064 12.2933 9.55143 12.1839 9.62223C12.0608 9.69302 11.9513 9.7638 11.8556 9.83459C11.7599 9.90539 11.6641 9.96202 11.5821 10.0328C11.5684 10.047 11.5547 10.047 11.541 10.0611C11.459 10.1178 11.3632 10.1885 11.2812 10.2593C11.2812 10.2593 11.2675 10.2735 11.2538 10.2876C11.1855 10.3443 11.1171 10.4009 11.0487 10.4575C11.0214 10.4717 10.994 10.5 10.9666 10.5142C10.8982 10.5708 10.8299 10.6416 10.7615 10.6982C10.7478 10.7265 10.7204 10.7407 10.7067 10.7549C10.6247 10.8398 10.5426 10.9106 10.4606 10.9956C10.4469 10.9956 10.4469 11.0098 10.4332 11.0239C10.3512 11.0947 10.2691 11.1796 10.187 11.2646C10.1733 11.2787 10.1733 11.2929 10.1597 11.2929C10.0913 11.3637 10.0229 11.4345 9.95455 11.5194C9.92722 11.5477 9.88617 11.5761 9.85881 11.6043C9.79043 11.6893 9.70837 11.7742 9.62631 11.8592C9.61261 11.8875 9.58528 11.9017 9.57158 11.93C9.46216 12.0433 9.36642 12.1565 9.25701 12.2698C9.24331 12.284 9.22967 12.2981 9.21598 12.3123C8.99714 12.553 8.76463 12.7936 8.51845 13.006C8.27226 13.2326 8.0124 13.4449 7.75254 13.629C7.479 13.8272 7.21914 13.9971 6.93192 14.167C6.65838 14.3227 6.37116 14.4643 6.07027 14.5918C5.78305 14.7192 5.48216 14.8325 5.18127 14.9316C4.60684 15.059 4.01873 15.2997 3.51268 15.3421C3.40326 15.3421 3.28017 15.3704 3.17076 15.3846C3.04766 15.4129 2.93825 15.4413 2.82883 15.4696C2.71942 15.512 2.61 15.5545 2.50058 15.597C2.39117 15.6395 2.28176 15.6961 2.17234 15.7527C2.0766 15.8235 1.96719 15.8802 1.87144 15.951C1.77571 16.0217 1.67997 16.1067 1.5979 16.1916C1.50217 16.2624 1.40643 16.3616 1.32436 16.4465C1.2423 16.5456 1.16024 16.6306 1.09186 16.7297C1.02347 16.8429 0.941411 16.942 0.886701 17.0553C0.818318 17.1544 0.749935 17.2677 0.695224 17.3809C0.640494 17.5084 0.58581 17.6216 0.544778 17.7491C0.503747 17.8623 0.462716 17.9898 0.421685 18.1172C0.394352 18.2305 0.366955 18.3437 0.353302 18.457C0.353302 18.4712 0.339604 18.4853 0.339604 18.4995C0.312271 18.6269 0.312271 18.7968 0.298573 18.8817C0.284875 18.9809 0.27124 19.0658 0.27124 19.1649C0.27124 19.2216 0.27124 19.2923 0.284938 19.349C0.298636 19.4481 0.312271 19.533 0.339668 19.618C0.367 19.7029 0.394398 19.7879 0.435403 19.8728V19.887C0.476434 19.972 0.531145 20.0569 0.585849 20.1419C0.640578 20.2268 0.695269 20.3118 0.763653 20.3967C0.832036 20.4675 0.914098 20.5524 0.99616 20.6232C1.07822 20.7082 1.16029 20.779 1.25602 20.8498C1.58427 21.1471 1.66633 21.2462 2.09032 21.4727C2.1587 21.5152 2.22709 21.5435 2.30915 21.586C2.32285 21.586 2.33649 21.6002 2.35018 21.6002C2.35018 21.6285 2.35018 21.6427 2.36388 21.671C2.37758 21.7843 2.40491 21.8975 2.43227 22.0108C2.4596 22.1382 2.50066 22.2515 2.54169 22.3506C2.58272 22.4355 2.61007 22.5205 2.6511 22.6054C2.6648 22.6337 2.67844 22.6621 2.69213 22.6762C2.74686 22.7895 2.80155 22.8886 2.85625 22.9877C2.92464 23.0868 2.99302 23.1859 3.06141 23.285C3.12979 23.37 3.21185 23.4691 3.29392 23.554C3.37598 23.639 3.45804 23.7098 3.55378 23.7947C3.55378 23.7947 3.56748 23.8089 3.58111 23.8089C3.66318 23.8797 3.74524 23.9505 3.8273 24.0071C3.92304 24.0779 4.01878 24.1346 4.12819 24.1912C4.22393 24.2479 4.33335 24.3045 4.44276 24.3469C4.52483 24.3894 4.62056 24.4177 4.7163 24.4461C4.73 24.4603 4.74363 24.4603 4.77103 24.4744C4.82576 24.4886 4.89412 24.5026 4.94883 24.5168C4.9078 25.2814 4.8941 26.0034 5.00356 26.2583C5.12665 26.5415 5.72844 25.6778 6.33022 24.6867C6.24816 25.6637 6.19345 26.8105 6.33022 27.1503C6.48067 27.5042 7.30129 26.3999 8.01249 25.1823C17.7095 22.8603 26.5585 29.7979 27.4885 39.5955C27.3107 38.0664 25.4916 37.2169 24.6574 37.4292C24.247 38.477 23.5495 39.822 22.428 40.6573C22.5238 39.7229 22.4827 38.7601 22.2912 37.8257C21.9904 39.1282 21.4022 40.3459 20.5953 41.3936C19.296 41.4927 17.9967 40.8414 17.3128 39.8645C17.2581 39.822 17.2444 39.737 17.2034 39.6804C17.1624 39.5813 17.1213 39.4822 17.094 39.3831C17.053 39.284 17.0256 39.1849 17.0119 39.0858C16.9982 38.9867 16.9982 38.8875 16.9982 38.7743C16.9982 38.7035 16.9982 38.6327 16.9982 38.5619C17.0119 38.4628 17.0393 38.3637 17.0666 38.2646C17.0939 38.1655 17.1213 38.0664 17.1624 37.9673C17.2171 37.8681 17.2581 37.769 17.3265 37.6699C17.559 36.9903 17.559 36.4382 17.135 36.1125C17.0529 36.0559 16.9709 36.0134 16.8751 35.9709C16.8204 35.9567 16.752 35.9284 16.6973 35.9143C16.6563 35.9001 16.629 35.886 16.5879 35.8718C16.4922 35.8435 16.3964 35.8151 16.3007 35.801C16.205 35.7727 16.1092 35.7585 16.0135 35.7585C15.9178 35.7443 15.8083 35.7302 15.7126 35.7302C15.6442 35.7302 15.5758 35.7444 15.5074 35.7444C15.398 35.7444 15.3023 35.7586 15.2065 35.7869C15.1108 35.8011 15.0151 35.8152 14.9193 35.8435C14.8236 35.8718 14.7279 35.9002 14.6321 35.9427C14.5364 35.9851 14.4543 36.0276 14.3586 36.0701C14.2765 36.1126 14.1945 36.1692 14.0987 36.2117C10.912 38.3637 12.8131 43.4041 14.9877 44.8624C14.1671 45.0181 13.3328 45.2022 13.1003 45.3863C13.0866 45.4004 13.073 45.4146 13.073 45.4146C13.6611 45.7827 14.2765 46.0942 14.9193 46.3632C15.7947 46.6605 16.7247 46.9295 17.135 47.0428V47.0569C18.2702 47.2976 19.4191 47.3826 20.5816 47.3118C26.6405 46.8729 31.6053 42.1015 32.5079 35.8152C32.5353 35.9426 32.5627 36.0559 32.59 36.1833C32.631 36.4382 32.6857 36.7072 32.7131 36.9762V36.9904C32.7404 37.1178 32.7541 37.2452 32.7678 37.3585V37.4152C32.7815 37.5426 32.7951 37.67 32.7951 37.7833C32.8088 37.939 32.8225 38.0948 32.8225 38.2505V38.477C32.8225 38.5478 32.8362 38.6328 32.8362 38.7036C32.8362 38.7885 32.8225 38.8735 32.8225 38.9584V39.1566C32.8225 39.2558 32.8088 39.3407 32.8088 39.4398C32.8088 39.4965 32.8088 39.5531 32.7951 39.6239C32.7951 39.723 32.7814 39.8221 32.7814 39.9354C32.7677 39.9778 32.7677 40.0203 32.7677 40.0628C32.754 40.1761 32.7403 40.2752 32.7266 40.3884C32.7266 40.4309 32.7266 40.4734 32.7129 40.5159C32.6992 40.6574 32.6719 40.7849 32.6582 40.9264V40.9406V40.9548C32.6309 41.0822 32.6035 41.2238 32.5761 41.3512V41.3937C32.5488 41.5211 32.5214 41.6486 32.4941 41.776C32.4941 41.7902 32.4804 41.8185 32.4804 41.8326C32.4531 41.9601 32.4257 42.0875 32.3847 42.2149V42.2574C32.3436 42.399 32.3026 42.5264 32.2752 42.6538C32.2615 42.668 32.2615 42.6821 32.2615 42.6821C32.2205 42.8237 32.1795 42.9653 32.1385 43.1069C32.0837 43.2485 32.0427 43.3759 31.988 43.5175C31.9333 43.6591 31.8923 43.8006 31.8376 43.9281C31.7828 44.0697 31.7281 44.1971 31.6734 44.3387H31.6597C31.605 44.4661 31.5503 44.6077 31.4819 44.7351C31.4682 44.7776 31.4546 44.8059 31.4409 44.8342C31.4272 44.8484 31.4272 44.8625 31.4136 44.8767C30.5246 46.7314 29.2116 48.3596 27.5703 49.6339C27.4609 49.7047 27.3515 49.7896 27.2421 49.8746C27.2147 49.9029 27.1737 49.917 27.1463 49.9454C27.0506 50.0161 26.9549 50.0869 26.8455 50.1577L26.8865 50.2427H26.9002C27.0916 50.2144 27.2831 50.186 27.4746 50.1577H27.4883C27.8439 50.1011 28.1995 50.0303 28.5551 49.9595C28.6508 49.9453 28.7603 49.917 28.856 49.8887C28.9244 49.8745 28.9791 49.8604 29.0475 49.8463C29.1432 49.8321 29.239 49.8038 29.3347 49.7896C29.4168 49.7613 29.4988 49.7471 29.5809 49.7188C30.9486 49.379 32.2752 48.9118 33.5472 48.3596C31.3726 51.432 28.4594 53.9097 25.0538 55.5379C26.6267 55.4246 28.1995 55.1556 29.7176 54.7025C35.2295 53.0177 39.866 49.1808 42.6424 44.013C42.0816 47.2836 40.8233 50.3984 38.9633 53.1168C40.2899 52.2107 41.5072 51.1629 42.615 49.9736C45.6787 46.6606 47.6892 42.4556 48.373 37.9391C48.838 40.1761 48.9748 42.4839 48.7697 44.7634C58.6444 30.5059 49.5903 15.7246 45.8018 11.8311C45.788 11.8028 45.7744 11.7886 45.7744 11.7603C45.7607 11.7745 45.7607 11.7745 45.7607 11.7886C45.7607 11.7744 45.7607 11.7744 45.747 11.7603C45.747 11.9302 45.7333 12.1001 45.7197 12.27C45.6786 12.5956 45.6376 12.9071 45.5829 13.2186C45.5145 13.5301 45.4325 13.8415 45.3504 14.153C45.2547 14.4504 45.1453 14.7618 45.0222 15.0592C44.8991 15.3423 44.7623 15.6397 44.6118 15.9228C44.4614 16.1918 44.2973 16.475 44.1195 16.7299C43.9417 16.9989 43.7502 17.2537 43.5587 17.4944C43.3536 17.7493 43.1347 17.9758 42.9159 18.2023C42.7791 18.3297 42.656 18.443 42.5193 18.5563C42.4099 18.6554 42.3141 18.7403 42.2047 18.8394C41.9585 19.0377 41.7123 19.2217 41.4388 19.3916C41.1789 19.5615 40.9054 19.7314 40.6319 19.873C40.3446 20.0146 40.0574 20.142 39.7702 20.2694C39.483 20.3827 39.1821 20.4818 38.8812 20.5668C38.5803 20.6517 38.2657 20.7225 37.9648 20.7791C37.6503 20.8358 37.3357 20.8641 37.0348 20.8924C36.816 20.9066 36.5972 20.9207 36.3783 20.9207C36.0637 20.9207 35.7492 20.8924 35.4483 20.8641C35.1337 20.8358 34.8191 20.7933 34.5183 20.7225C34.2037 20.6658 33.9028 20.5809 33.6019 20.4818H33.5882C33.8891 20.4535 34.19 20.4251 34.4909 20.3685C34.8054 20.3118 35.1063 20.2411 35.4072 20.1561C35.7081 20.0712 36.009 19.9721 36.2962 19.8588C36.5971 19.7455 36.8843 19.604 37.1579 19.4624C37.4451 19.3208 37.705 19.165 37.9785 18.9951C38.2384 18.8111 38.4982 18.627 38.7444 18.4288C38.9906 18.2306 39.2231 18.0182 39.4419 17.7917C39.6744 17.5793 39.8796 17.3386 40.0848 17.0979C40.2899 16.8431 40.4814 16.5882 40.6592 16.3334C40.6865 16.2909 40.7139 16.2343 40.7413 16.1918C40.878 15.9653 41.0148 15.7387 41.1379 15.5122C41.2883 15.229 41.4251 14.9459 41.5482 14.6485C41.6713 14.3512 41.7807 14.0539 41.8764 13.7424C41.9722 13.4451 42.0406 13.1336 42.1089 12.8221C42.1637 12.4965 42.2184 12.185 42.2457 11.8735C42.273 11.5479 42.3004 11.2222 42.3004 10.9107C42.3004 10.6842 42.2867 10.4577 42.2731 10.2311C42.2458 9.90549 42.2047 9.594 42.1637 9.28252C42.109 8.95688 42.0406 8.6454 41.9585 8.33391C41.8628 8.03659 41.7671 7.7251 41.6577 7.42778C41.5482 7.13045 41.4115 6.83312 41.2747 6.54996C41.1242 6.26679 40.9738 5.98362 40.8097 5.71462C40.6319 5.44561 40.4541 5.19076 40.2626 4.93591C40.0574 4.69521 39.8523 4.45452 39.6335 4.21383C39.524 4.10057 39.4009 3.97314 39.2779 3.85988C38.6624 3.36433 38.0196 2.8971 37.3768 2.47236C37.281 2.4157 37.199 2.37325 37.1032 2.33077C36.6519 2.03345 36.2279 1.87762 35.8039 1.73604Z"
        fill="currentColor" />
</svg>