<svg width="56" height="56" viewBox="0 0 56 56" fill="none" xmlns="http://www.w3.org/2000/svg">
    <path
        d="M26.1662 0.0150699C26.0458 0.0260164 25.6626 0.0643297 25.3177 0.0916964C17.3638 0.8087 9.91357 5.09976 5.19492 11.6951C2.56735 15.3622 0.886805 19.5219 0.251808 23.9279C0.0273705 25.4659 0 25.9202 0 28.0055C0 30.0908 0.0273705 30.5451 0.251808 32.0831C1.77361 42.5973 9.25669 51.4312 19.4057 54.7042C21.223 55.2899 23.139 55.6894 25.3177 55.9302C26.1662 56.0235 29.8338 56.0235 30.6823 55.9302C34.443 55.5143 37.6289 54.5838 40.7711 52.9801C41.2528 52.7338 41.3459 52.6681 41.2802 52.6134C41.2364 52.5806 39.1836 49.8275 36.7202 46.4997L32.2424 40.4518L26.6315 32.1488C23.5441 27.584 21.0041 23.8512 20.9822 23.8512C20.9603 23.8458 20.9384 27.5348 20.9275 32.0393C20.9111 39.9263 20.9056 40.2438 20.807 40.4299C20.6647 40.698 20.5552 40.8075 20.3253 40.9279C20.1501 41.0155 19.9969 41.0319 19.1703 41.0319H18.2232L17.9715 40.8732C17.8072 40.7692 17.6868 40.6324 17.6047 40.4737L17.4898 40.2273L17.5007 29.2534L17.5171 18.274L17.6868 18.0605C17.7744 17.9456 17.9605 17.7978 18.0919 17.7266C18.3163 17.6171 18.4039 17.6062 19.3509 17.6062C20.4677 17.6062 20.6538 17.65 20.9439 17.9675C21.026 18.055 24.0642 22.6307 27.6989 28.1423C31.3337 33.6539 36.3042 41.1797 38.7457 44.8741L43.1796 51.5899L43.4041 51.4421C45.3912 50.1504 47.4933 48.3114 49.1574 46.3957C52.6991 42.3291 54.9818 37.3703 55.7482 32.0831C55.9726 30.5451 56 30.0908 56 28.0055C56 25.9202 55.9726 25.4659 55.7482 23.9279C54.2264 13.4137 46.7433 4.5798 36.5943 1.30677C34.8043 0.726598 32.8993 0.327047 30.7644 0.0862224C30.2389 0.0314894 26.6206 -0.0287165 26.1662 0.0150699ZM37.6289 16.9494C37.8917 17.0808 38.1052 17.3326 38.1818 17.5953C38.2256 17.7376 38.2366 20.7808 38.2256 27.6387L38.2092 37.4797L36.4739 34.8197L34.7332 32.1597V25.0061C34.7332 20.3812 34.7551 17.7814 34.7879 17.6555C34.8755 17.349 35.067 17.1082 35.3298 16.9659C35.5542 16.8509 35.6364 16.84 36.4958 16.84C37.306 16.84 37.4483 16.8509 37.6289 16.9494Z"
        fill="currentColor" />
</svg>