<svg width="50" height="56" viewBox="0 0 50 56" fill="none" xmlns="http://www.w3.org/2000/svg">
    <path
        d="M49.6626 16.15V39.8336C49.6626 41.3706 48.8356 42.8017 47.5068 43.5753L26.9864 55.4237C26.3301 55.8044 25.5857 56 24.8254 56C24.0761 56 23.3297 55.8044 22.6732 55.4237L15.8216 51.37C14.7996 50.7993 15.2983 50.5964 15.6362 50.4792C17.001 50.0056 17.277 49.8964 18.734 49.0696C18.886 48.9827 19.0865 49.0167 19.2433 49.1072L24.507 52.2325C24.6978 52.3401 24.9672 52.3401 25.1427 52.2325L45.6647 40.3875C45.8558 40.2783 45.9783 40.0606 45.9783 39.8337V16.15C45.9783 15.918 45.8558 15.7013 45.6599 15.5842L25.1463 3.74967C24.9572 3.63899 24.7047 3.63899 24.5142 3.74967L4.00526 15.5875C3.80603 15.7015 3.68033 15.9249 3.68033 16.15V39.8336C3.68033 40.0604 3.80592 40.273 4.00406 40.3805L9.62587 43.6302C12.6756 45.1539 14.5437 43.3579 14.5437 41.5529V18.1708C14.5437 17.8402 14.8092 17.5795 15.1397 17.5795H17.7421C18.0675 17.5795 18.3371 17.8401 18.3371 18.1708V41.553C18.3371 45.6238 16.1195 47.9589 12.2602 47.9589C11.0749 47.9589 10.14 47.9589 7.53272 46.6753L2.15211 43.5753C0.822466 42.8088 0 41.3707 0 39.8336V16.15C0 14.611 0.822466 13.1747 2.15211 12.4092L22.6733 0.550767C23.972 -0.183589 25.6989 -0.183589 26.9864 0.550767L47.5068 12.4092C48.8356 13.1778 49.6626 14.611 49.6626 16.15ZM31.9734 37.5745C25.8495 37.5745 24.5021 36.0349 24.0508 32.9897C23.9985 32.6646 23.72 32.4226 23.3863 32.4226H20.3939C20.0232 32.4226 19.7258 32.7188 19.7258 33.0915C19.7258 36.9885 21.8468 41.6363 31.9734 41.6363C39.3056 41.6363 43.5097 38.7498 43.5097 33.7083C43.5097 28.7085 40.1314 27.3784 33.0211 26.437C25.8343 25.486 25.104 24.9963 25.104 23.3129C25.104 21.9254 25.7224 20.0711 31.0455 20.0711C35.7988 20.0711 37.5513 21.0957 38.2718 24.2986C38.3353 24.6005 38.6097 24.8208 38.9209 24.8208H41.9246C42.1109 24.8208 42.2879 24.7408 42.4145 24.6079C42.5414 24.4676 42.6088 24.2849 42.591 24.0934C42.1263 18.5726 38.4581 16.0009 31.0454 16.0009C24.4471 16.0009 20.5119 18.786 20.5119 23.4531C20.5119 28.518 24.4274 29.9189 30.7585 30.5438C38.3352 31.287 38.9233 32.394 38.9233 33.8849C38.9233 36.4711 36.8483 37.5745 31.9734 37.5745Z"
        fill="currentColor" />
</svg>