<svg width="46" height="56" viewBox="0 0 46 56" fill="none" xmlns="http://www.w3.org/2000/svg">
    <path fill-rule="evenodd" clip-rule="evenodd"
        d="M41.4138 44.4183L16.4767 51.8528C16.303 51.9055 16.1186 51.9122 15.9415 51.8723C15.7643 51.8324 15.6006 51.7473 15.4662 51.6252C15.3319 51.5031 15.2314 51.3482 15.1748 51.1758C15.1181 51.0033 15.1072 50.819 15.143 50.6411L24.0532 7.62761C24.0909 7.45191 24.1827 7.29243 24.3157 7.17158C24.4487 7.05073 24.6162 6.97458 24.7947 6.95384C24.9732 6.9331 25.1537 6.96881 25.3109 7.05595C25.468 7.14308 25.5939 7.27727 25.6709 7.43965L42.1656 42.7546C42.2396 42.9116 42.2786 43.0828 42.28 43.2564C42.2813 43.43 42.245 43.6018 42.1735 43.7599C42.1021 43.9181 41.9971 44.0589 41.8659 44.1725C41.7348 44.2862 41.5805 44.37 41.4138 44.4183ZM45.6909 42.6626L26.5967 1.77278C26.362 1.26844 25.9943 0.837577 25.5332 0.526492C25.072 0.215407 24.5348 0.0358562 23.9793 0.00713157C23.4237 -0.0310805 22.8683 0.0847972 22.3744 0.342C21.8804 0.599203 21.4671 0.987751 21.1798 1.46484L0.473932 35.2961C0.158073 35.8082 -0.00619183 36.3993 0.000178492 37.001C0.00654881 37.6026 0.183293 38.1901 0.509926 38.6954L10.6359 54.5103C11.0175 55.1013 11.5802 55.5528 12.2399 55.7972C12.8996 56.0416 13.6206 56.0658 14.2952 55.866L43.6893 47.1018C44.1333 46.9724 44.5439 46.7484 44.893 46.4452C45.242 46.1419 45.5212 45.7666 45.7112 45.345C45.9013 44.9235 45.9977 44.4658 45.9939 44.0034C45.99 43.541 45.886 43.0849 45.6889 42.6666L45.6909 42.6626Z"
        fill="black" />
</svg>