<svg width="59" height="56" viewBox="0 0 59 56" fill="none" xmlns="http://www.w3.org/2000/svg">
    <path
        d="M45.1619 15.1795L43.4696 14.6491C43.4696 14.2702 43.6464 13.866 43.7475 13.4872C45.0104 7.27362 44.1769 2.27247 41.2216 0.630673C38.2664 -1.01112 34.023 0.630673 29.4765 4.64675C29.0471 5.02563 28.5925 5.42976 28.1883 5.83389L27.4306 5.07614C22.682 0.756965 17.9334 -1.03638 15.0792 0.630673C12.225 2.29772 11.5178 6.92 12.5534 12.8052C12.6544 13.3946 12.7807 13.9755 12.9323 14.548C12.2756 14.7248 11.6188 14.9269 10.9874 15.1542C5.43054 17.0739 1.43973 20.2059 1.43973 23.2874C1.43973 26.3689 5.68313 29.8041 11.5431 31.7742L12.9575 32.2289C12.806 32.8603 12.6797 33.4665 12.5534 34.098C11.4673 39.8821 12.3008 44.4792 15.0792 46.0452C17.8577 47.6112 22.6567 46.0452 27.2285 41.9786L28.3146 40.9683C28.7693 41.4229 29.2492 41.827 29.7291 42.2564C34.1998 46.0957 38.62 47.6365 41.3479 46.0704C44.0758 44.5044 45.0609 39.5033 43.8738 33.4413C43.8738 32.9614 43.6717 32.5067 43.5707 32.0268L44.5557 31.7237C50.5672 29.7283 54.9117 26.5205 54.9117 23.2116C54.9117 19.9028 50.8451 17.0486 45.1619 15.1795ZM31.0678 6.26329C34.9323 2.87867 38.6453 1.53997 40.2113 2.49979C41.7773 3.45961 42.7371 7.55146 41.55 12.9567C41.55 13.3104 41.3984 13.664 41.2974 14.0176C38.9856 13.4835 36.6393 13.1122 34.2756 12.9062C32.9295 10.9573 31.4437 9.10859 29.8301 7.37465C30.2342 6.97052 30.6384 6.6169 31.0678 6.26329ZM18.9943 28.6927C19.5247 29.602 20.0804 30.5113 20.6361 31.3953C19.0195 31.2185 17.403 30.9407 15.8117 30.6123C16.2664 29.0968 16.8473 27.5561 17.504 25.9648C17.9839 26.8741 18.4639 27.7834 18.9943 28.6927ZM15.837 16.0635C17.3272 15.7352 18.9438 15.4573 20.5856 15.2553C20.0299 16.114 19.4994 16.956 18.9943 17.7811C18.4639 18.6651 17.9839 19.5744 17.504 20.4837C16.868 18.9989 16.3115 17.4813 15.837 15.9372V16.0635ZM18.6912 23.3379C19.3732 21.8982 20.1309 20.4837 20.9139 19.0945C21.6969 17.7053 22.581 16.3666 23.4397 15.0532C25.0058 15.0532 26.597 14.8764 28.2388 14.8764C29.8806 14.8764 31.4719 14.8764 33.0127 15.0532C33.8967 16.3666 34.7555 17.579 35.5385 19.0693C36.3215 20.5595 37.1045 21.8729 37.8117 23.2874C37.1045 24.7271 36.372 26.1416 35.5638 27.5308C34.7555 28.92 33.8462 30.3345 33.0632 31.5974C31.4972 31.7237 29.8806 31.7742 28.2641 31.7742C26.6476 31.7742 25.031 31.7742 23.4903 31.6227C22.581 30.3092 21.7474 28.9453 20.9644 27.5561C20.1814 26.1669 19.3984 24.7777 18.6912 23.3379ZM37.5339 28.6674C38.0643 27.7581 38.5442 26.8236 39.0494 25.889C39.7061 27.4045 40.2871 28.92 40.8175 30.5113C39.201 30.8649 37.5592 31.1428 35.9174 31.3448C36.4731 30.4608 37.0035 29.5767 37.5339 28.6674ZM39.0241 20.6858C38.5358 19.7765 38.0307 18.8672 37.5086 17.9579C37.0035 17.0739 36.4731 16.1898 35.9174 15.4321C37.5309 15.6233 39.1329 15.9016 40.7165 16.2656C40.2283 17.767 39.6635 19.2423 39.0241 20.6858ZM28.2641 8.96593C29.3557 10.133 30.3763 11.3644 31.3204 12.6536C29.2828 12.6536 27.2285 12.6536 25.1573 12.6536C26.1302 11.3729 27.1671 10.1421 28.2641 8.96593ZM16.1653 2.55031C17.9082 1.51472 21.798 2.9797 25.8898 6.6169L26.6981 7.34939C25.0834 9.09806 23.5897 10.9546 22.2273 12.9062C19.8743 13.118 17.5373 13.4808 15.2308 13.9923C15.2308 13.4619 14.9782 12.9062 14.8772 12.3758C13.8921 7.32414 14.5236 3.51013 16.1653 2.55031ZM13.6395 30.0567L12.3513 29.6525C9.99258 28.9486 7.77153 27.8466 5.78416 26.3942C5.26213 26.0397 4.81961 25.5804 4.48477 25.0455C4.14993 24.5106 3.9301 23.9119 3.83927 23.2874C3.83927 21.3678 7.12286 18.943 11.8714 17.2759L13.6395 16.695C14.3388 18.9609 15.1825 21.1798 16.1653 23.3379C15.1827 25.5221 14.3391 27.7661 13.6395 30.0567ZM25.814 40.2863C24.0905 41.8537 22.0963 43.0947 19.9288 43.9487C19.3464 44.2338 18.711 44.3944 18.063 44.4205C17.4151 44.4466 16.7688 44.3376 16.1653 44.1003C14.5236 43.1405 13.8163 39.4528 14.7509 34.5021C14.7509 33.9212 15.0035 33.3402 15.155 32.7593C17.4861 33.2601 19.8493 33.5977 22.2273 33.7696C23.6062 35.7237 25.1079 37.5882 26.7233 39.3517L25.7383 40.2863H25.814ZM28.3399 37.7604C27.2247 36.5512 26.1709 35.2866 25.1826 33.9717H28.2641C28.2641 33.9717 30.3858 33.9717 31.4214 33.9717C30.4616 35.3862 29.426 36.5228 28.3399 37.7352V37.7604ZM41.9541 40.8925C41.911 41.5254 41.7359 42.1422 41.4401 42.7034C41.1443 43.2645 40.7343 43.7576 40.2366 44.1508C38.5948 45.1106 35.0586 43.873 31.2446 40.5894L29.9059 39.4022C31.504 37.6414 32.9728 35.7674 34.3008 33.7949C36.6994 33.6016 39.0803 33.2301 41.4237 32.6835C41.4237 33.1129 41.6258 33.5423 41.7015 33.9464C42.2149 36.2176 42.3006 38.5646 41.9541 40.8672V40.8925ZM43.9495 29.6525L43.0402 29.9304C42.3207 27.6538 41.4343 25.4335 40.3881 23.2874C41.3776 21.158 42.2215 18.9639 42.9139 16.7202L44.48 17.2002C49.3548 18.8672 52.7647 21.3678 52.7647 23.2622C52.7647 25.1565 49.0012 27.9349 43.9495 29.6525ZM28.3399 28.0865C29.2807 28.0716 30.1961 27.7789 30.9711 27.2454C31.7461 26.7118 32.3462 25.9612 32.6959 25.0876C33.0456 24.2141 33.1294 23.2567 32.9368 22.3358C32.7441 21.4148 32.2836 20.5713 31.613 19.9112C30.9425 19.2511 30.0918 18.8039 29.1679 18.6258C28.244 18.4476 27.2881 18.5465 26.4202 18.9099C25.5523 19.2734 24.8111 19.8852 24.2898 20.6685C23.7686 21.4518 23.4904 22.3718 23.4903 23.3127C23.4903 23.9396 23.6137 24.5604 23.8537 25.1395C24.0936 25.7187 24.4452 26.245 24.8885 26.6883C25.3318 27.1316 25.858 27.4832 26.4372 27.7231C27.0164 27.963 27.6372 28.0865 28.2641 28.0865H28.3399ZM4.2434 52.6376C4.71298 52.4786 5.11768 52.1703 5.39584 51.7599C5.674 51.3495 5.81037 50.8595 5.78416 50.3644C5.80649 50.0269 5.75646 49.6885 5.63742 49.372C5.51838 49.0554 5.33308 48.7679 5.09393 48.5288C4.85478 48.2896 4.56729 48.1043 4.25072 47.9853C3.93415 47.8662 3.5958 47.8162 3.25833 47.8385H0V55.8202H1.23766V52.8397H2.98049L4.59702 55.8959H6.062L4.2434 52.6376ZM3.00574 51.7788H1.23766V49.0004H2.98049C3.17601 48.9748 3.37476 48.9918 3.56305 49.0504C3.75134 49.109 3.92469 49.2078 4.07114 49.3398C4.2176 49.4719 4.33368 49.6341 4.41138 49.8153C4.48909 49.9966 4.52657 50.1925 4.52124 50.3896C4.53039 50.5855 4.49638 50.7811 4.42162 50.9624C4.34686 51.1437 4.23317 51.3064 4.0886 51.4389C3.94402 51.5714 3.7721 51.6705 3.58498 51.7293C3.39786 51.788 3.20012 51.8049 3.00574 51.7788ZM11.5683 53.1933V52.7892C11.5683 50.8948 10.558 49.7329 8.86568 49.7329C8.46576 49.7297 8.06978 49.8121 7.70433 49.9746C7.33888 50.1371 7.01242 50.3758 6.74686 50.6749C6.48131 50.9739 6.2828 51.3263 6.16468 51.7084C6.04656 52.0905 6.01155 52.4935 6.062 52.8902C6.01078 53.2846 6.04561 53.6854 6.16408 54.065C6.28256 54.4446 6.48187 54.7941 6.74831 55.0893C7.01474 55.3846 7.34198 55.6186 7.70749 55.7753C8.07301 55.9319 8.46814 56.0076 8.86568 55.997C9.41964 56.0241 9.96712 55.8681 10.4236 55.5531C10.8801 55.2381 11.2202 54.7817 11.3915 54.2542H10.3559C10.2142 54.5039 10.0021 54.7065 9.74614 54.8368C9.49017 54.967 9.20156 55.0191 8.9162 54.9866C8.69405 54.9909 8.47348 54.9485 8.26868 54.8624C8.06389 54.7762 7.87941 54.6481 7.72713 54.4863C7.57485 54.3245 7.45814 54.1326 7.38452 53.9229C7.31089 53.7133 7.28199 53.4906 7.29966 53.2691L11.5683 53.1933ZM8.86568 50.6675C9.06777 50.6599 9.26918 50.6949 9.45682 50.7703C9.64445 50.8458 9.81409 50.9599 9.95468 51.1052C10.0953 51.2506 10.2037 51.4239 10.2728 51.614C10.3419 51.804 10.3703 52.0065 10.3559 52.2082H7.29966C7.32557 51.8129 7.50272 51.4428 7.79434 51.1747C8.08595 50.9066 8.46962 50.7612 8.86568 50.7685V50.6675ZM14.4983 49.6319C13.1343 49.6319 12.1493 50.3138 11.9725 51.3494H13.1343C13.1343 50.92 13.7153 50.6675 14.3973 50.6675C15.0792 50.6675 15.6097 51.0463 15.6097 51.6778V52.183H13.9931C12.5534 52.183 11.7451 52.8902 11.7451 53.9763C11.7475 54.2319 11.8029 54.4843 11.908 54.7174C12.013 54.9504 12.1654 55.1591 12.3554 55.3301C12.5455 55.5011 12.769 55.6307 13.0118 55.7108C13.2546 55.7908 13.5113 55.8194 13.7658 55.7949C14.1233 55.8104 14.4784 55.7295 14.794 55.5607C15.1095 55.3918 15.3738 55.1412 15.5591 54.8351V55.6939H16.6958V51.7788C16.8473 50.5412 15.9885 49.7329 14.4983 49.7329V49.6319ZM15.6602 53.5722C15.6475 53.7604 15.5973 53.9442 15.5125 54.1127C15.4277 54.2813 15.3101 54.4311 15.1665 54.5535C15.023 54.6759 14.8564 54.7683 14.6765 54.8254C14.4967 54.8824 14.3073 54.9029 14.1194 54.8856C13.4627 54.8856 12.9828 54.5572 12.9828 54.0268C12.9828 53.4964 13.3617 53.2186 14.1952 53.168H15.6602V53.5722ZM21.6464 51.7283C21.5642 51.4171 21.3746 51.145 21.1111 50.9601C20.8477 50.7752 20.5273 50.6894 20.2067 50.718C19.2216 50.718 18.6154 51.4757 18.6154 52.7639C18.6154 54.0521 19.2216 54.8351 20.2067 54.8351C20.5256 54.8756 20.8484 54.7976 21.1137 54.6161C21.379 54.4345 21.5686 54.162 21.6464 53.85H22.8083C22.7264 54.4483 22.4196 54.9929 21.9504 55.373C21.4811 55.7531 20.8847 55.9401 20.2825 55.8959C19.8804 55.9109 19.4799 55.8375 19.1093 55.681C18.7386 55.5245 18.4068 55.2887 18.1371 54.9901C17.8674 54.6915 17.6664 54.3374 17.5483 53.9528C17.4302 53.5682 17.3979 53.1624 17.4535 52.7639C17.4145 52.3797 17.4568 51.9916 17.5776 51.6248C17.6984 51.258 17.895 50.9208 18.1547 50.6349C18.4143 50.3491 18.7312 50.121 19.0847 49.9656C19.4383 49.8102 19.8205 49.7309 20.2067 49.7329C20.8084 49.7242 21.3935 49.9305 21.8566 50.3149C22.3196 50.6992 22.6303 51.2363 22.7325 51.8294L21.6464 51.7283ZM25.0058 48.2679V49.7834H26.2687V50.7938H25.0058V53.9005C25.0058 54.5067 25.2583 54.7846 25.8646 54.7846H26.2687V55.7697C26.059 55.7961 25.8469 55.7961 25.6372 55.7697C24.3238 55.7697 23.7934 55.315 23.7934 54.1531V50.8948H22.8588V49.8845H23.7428V48.369L25.0058 48.2679ZM29.2492 55.8454V48.0153H30.3605L34.4524 53.6732V48.0153H35.6395V55.997H34.5282L30.4363 50.3138V55.997L29.2492 55.8454ZM39.1252 49.6824C37.7612 49.6824 36.7762 50.3644 36.5993 51.4H37.7612C37.7612 50.9706 38.3422 50.718 39.0241 50.718C39.7061 50.718 40.2366 51.0969 40.2366 51.7283V52.2335H38.62C37.1803 52.2335 36.372 52.9407 36.372 54.0268C36.3743 54.2825 36.4298 54.5348 36.5349 54.7679C36.6399 55.0009 36.7923 55.2096 36.9823 55.3806C37.1723 55.5516 37.3959 55.6813 37.6386 55.7613C37.8814 55.8413 38.1382 55.87 38.3927 55.8454C38.7502 55.861 39.1053 55.78 39.4208 55.6112C39.7364 55.4423 40.0006 55.1917 40.186 54.8856V55.7444H41.4237V51.7788C41.4237 50.5412 40.6407 49.7329 39.1252 49.7329V49.6824ZM40.2871 53.6227C40.2744 53.8109 40.2242 53.9947 40.1394 54.1632C40.0546 54.3318 39.937 54.4816 39.7934 54.604C39.6498 54.7264 39.4832 54.8188 39.3034 54.8759C39.1236 54.9329 38.9342 54.9534 38.7463 54.9361C38.0896 54.9361 37.6097 54.6078 37.6097 54.0773C37.6097 53.5469 37.9886 53.2691 38.8221 53.2186H40.2871V53.6227ZM43.9495 48.369V49.8845H45.263V50.8948H43.9495V54.0016C43.9495 54.6078 44.2274 54.8856 44.8083 54.8856H45.263V55.8707C45.045 55.8993 44.8242 55.8993 44.6062 55.8707C43.2928 55.8707 42.7624 55.416 42.7624 54.2542V50.8948H41.8026V49.8845H42.7624V48.369H43.9495ZM45.6671 48.0911C45.6518 47.9329 45.685 47.7737 45.7623 47.6347C45.8397 47.4958 45.9575 47.3837 46.1001 47.3134C46.2427 47.2431 46.4033 47.2178 46.5607 47.241C46.718 47.2642 46.8645 47.3347 46.9807 47.4432C47.097 47.5517 47.1774 47.693 47.2114 47.8484C47.2454 48.0037 47.2312 48.1657 47.1709 48.3128C47.1105 48.4599 47.0068 48.5852 46.8736 48.6719C46.7403 48.7586 46.5838 48.8027 46.4248 48.7983C46.3201 48.8059 46.2149 48.7908 46.1165 48.7541C46.0181 48.7174 45.9288 48.6599 45.8545 48.5857C45.7802 48.5114 45.7228 48.4221 45.6861 48.3236C45.6494 48.2252 45.6343 48.1201 45.6418 48.0153L45.6671 48.0911ZM45.8439 49.8592H47.031V55.8959H45.8439V49.8592ZM50.8956 55.8959H49.6327L47.4604 49.8592H48.7234L50.2136 54.6078L51.7038 49.8592H52.9668L50.8956 55.8959ZM58.4731 53.1933V52.7892C58.5281 52.405 58.4989 52.0135 58.3876 51.6418C58.2763 51.27 58.0854 50.9269 57.8284 50.6362C57.5713 50.3455 57.2541 50.1141 56.8988 49.9582C56.5434 49.8022 56.1584 49.7253 55.7704 49.7329C55.3726 49.7333 54.9795 49.8184 54.6171 49.9824C54.2547 50.1465 53.9313 50.3858 53.6685 50.6844C53.4057 50.983 53.2095 51.3342 53.0929 51.7145C52.9762 52.0948 52.9418 52.4956 52.992 52.8902C52.9367 53.2832 52.9679 53.6835 53.0832 54.0632C53.1986 54.4429 53.3954 54.7928 53.66 55.0886C53.9245 55.3844 54.2504 55.619 54.6149 55.7758C54.9794 55.9327 55.3738 56.0082 55.7704 55.997C56.3244 56.0241 56.8719 55.8681 57.3284 55.5531C57.7849 55.2381 58.125 54.7817 58.2963 54.2542H57.1344C57.0022 54.5066 56.7956 54.7122 56.5426 54.8433C56.2895 54.9743 56.0023 55.0243 55.7199 54.9866C55.4978 54.9909 55.2772 54.9485 55.0724 54.8624C54.8676 54.7762 54.6831 54.6481 54.5309 54.4863C54.3786 54.3245 54.2619 54.1326 54.1882 53.9229C54.1146 53.7133 54.0857 53.4906 54.1034 53.2691L58.4731 53.1933ZM55.7704 50.6675C55.9715 50.6637 56.1711 50.7014 56.357 50.7782C56.5428 50.855 56.7109 50.9692 56.8507 51.1137C56.9905 51.2582 57.099 51.43 57.1696 51.6183C57.2401 51.8066 57.2711 52.0074 57.2607 52.2082H54.0529C54.0786 51.8173 54.2522 51.4509 54.5384 51.1835C54.8246 50.916 55.2019 50.7677 55.5936 50.7685L55.7704 50.6675Z"
        fill="currentColor" />
</svg>