<svg width="56" height="56" viewBox="0 0 56 56" fill="none" xmlns="http://www.w3.org/2000/svg">
    <path
        d="M53.55 28C53.55 24.7333 50.05 21.7 44.2166 19.6L43.1666 19.25V18.7833C44.45 12.3667 43.5166 7.58335 40.6 5.83335C37.6833 4.08335 33.3666 5.71668 28.7 9.80001L27.9999 10.5L27.7666 10.2667H27.5333C22.75 5.83335 18.0833 4.31668 15.1666 5.95001C12.25 7.58335 11.4333 12.1333 12.6 18.0833C12.7227 18.4619 12.801 18.8534 12.8333 19.25L11.55 19.7167C5.83328 21.7 2.44995 24.7333 2.44995 28C2.44995 31.2667 6.18329 34.5333 12.0166 36.6333L12.8333 36.8667C12.6891 37.2797 12.6104 37.7127 12.6 38.15C11.4333 43.9833 12.4833 48.4167 15.1666 50.05C17.85 51.6833 22.75 50.1667 27.4166 46.0833L28.1166 45.5L29.0499 46.4333C32.3166 49.2333 35.5833 50.75 38.15 50.75C39.0553 50.7707 39.9471 50.5274 40.7166 50.05C43.6333 48.4167 44.6833 43.6333 43.4 37.5667V37.3333C43.3496 37.1414 43.3106 36.9466 43.2833 36.75H43.6333C49.8166 34.5333 53.55 31.3833 53.55 28ZM50.1666 28C50.1666 29.4 47.6 31.85 42.5833 33.4833H42.35C41.7383 31.6067 40.9977 29.7745 40.1333 28C40.95 26.1333 41.65 24.2667 42.2333 22.5167L43.1666 22.75C47.8333 24.3833 50.1666 26.6 50.1666 28ZM31.2666 43.8667L30.3333 43.1667C31.6691 41.6865 32.9158 40.1282 34.0666 38.5L40.0166 37.5667C40.1333 37.8 40.1333 38.0333 40.25 38.15C40.6657 40.2632 40.7444 42.4289 40.4833 44.5667C40.3194 45.5891 39.8281 46.5307 39.0833 47.25C37.9166 47.95 34.7666 47.0167 31.2666 43.8667ZM29.7499 38.7333L28.1166 40.8333L26.2499 38.7333H29.7499ZM13.7666 22.4C14.353 24.3235 15.0943 26.1963 15.9833 28C15.0936 29.8436 14.3524 31.7552 13.7666 33.7167L13.0666 33.4833C11.0236 32.8385 9.1228 31.8089 7.46662 30.45C7.03777 30.179 6.67072 29.8209 6.38933 29.3988C6.10793 28.9767 5.91848 28.5001 5.83328 28C5.83328 26.6 8.16662 24.3833 12.6 22.8667L13.7666 22.4ZM26.2499 17.2667L27.9999 15.2833L29.7499 17.2667H26.2499ZM39.0833 8.75001C40.3666 9.45001 41.0666 12.95 40.0166 18.0833C40.022 18.1466 40.0144 18.2102 39.9943 18.2704C39.9743 18.3305 39.9422 18.386 39.9 18.4333L34.0666 17.5C32.9158 15.8718 31.6691 14.3135 30.3333 12.8333L31.0333 12.25C34.7666 8.98335 37.7999 8.05001 39.0833 8.75001ZM19.5999 21.1167L18.6666 22.6333L17.85 24.15C17.5 23.3333 17.2666 22.5167 16.9166 21.5833L19.5999 21.1167ZM16.9166 34.4167C17.2666 33.6 17.5 32.7833 17.85 31.85L18.6666 33.3667L19.5999 34.8833L16.9166 34.4167ZM36.4 28C35.8063 29.2791 35.1442 30.5254 34.4166 31.7333C33.7166 33.0167 32.9 34.1833 32.2 35.35H23.7999C22.9833 34.0667 22.1666 32.9 21.5833 31.7333C20.8499 30.5286 20.1877 29.2821 19.5999 28C20.166 26.7074 20.829 25.4594 21.5833 24.2667C22.2536 23.058 22.9937 21.8893 23.7999 20.7667C26.5951 20.5335 29.4048 20.5335 32.2 20.7667C33.0166 21.9333 33.7166 23.1 34.4166 24.2667C35.1709 25.4594 35.8339 26.7074 36.4 28ZM37.3333 22.6333L36.4 21.1167L39.0833 21.7C38.8235 22.5353 38.5118 23.3536 38.15 24.15L37.3333 22.6333ZM36.4 34.8833L37.3333 33.3667L38.15 31.7333L39.1999 34.4167L36.4 34.8833ZM25.5499 12.7167H25.6666L21.9333 17.3833L16.1 18.3167C15.9833 17.9667 15.9833 17.7333 15.8666 17.3833C14.9333 12.6 15.6333 9.33335 16.7999 8.75001C17.1097 8.54657 17.4832 8.46357 17.85 8.51668C19.4833 8.51668 22.2833 9.68334 25.4333 12.4833L25.5499 12.7167ZM15.8666 38.7333C15.8879 38.3731 15.9667 38.0187 16.1 37.6833L22.0499 38.5C23.1716 40.1499 24.4198 41.7102 25.7833 43.1667L25.5499 43.4L25.3166 43.6333C23.726 45.1067 21.8635 46.2559 19.8333 47.0167C19.3879 47.25 18.9 47.3909 18.3988 47.431C17.8976 47.4711 17.3934 47.4095 16.9166 47.25C15.6333 46.55 14.9333 43.4 15.8666 38.7333Z"
        fill="currentColor" />
    <path
        d="M28 22.8666C26.9801 22.8434 25.9764 23.1247 25.117 23.6745C24.2576 24.2242 23.5815 25.0176 23.1751 25.9533C22.7686 26.889 22.6501 27.9247 22.8348 28.928C23.0195 29.9313 23.499 30.8569 24.212 31.5865C24.9251 32.3161 25.8394 32.8167 26.8382 33.0244C27.837 33.2322 28.8751 33.1375 29.8199 32.7527C30.7647 32.3678 31.5734 31.7101 32.1428 30.8636C32.7122 30.0171 33.0164 29.0201 33.0167 28C33.017 26.6585 32.4922 25.3702 31.5546 24.4108C30.617 23.4514 29.3411 22.8971 28 22.8666Z"
        fill="currentColor" />
</svg>