<svg width="56" height="56" viewBox="0 0 56 56" fill="none" xmlns="http://www.w3.org/2000/svg">
    <path
        d="M0 28V56H56V0H0V28ZM34.3437 27.0156V29.5313H27.125V52.5H21.2187V29.5313H14V24.5H34.3437V27.0156ZM48.5625 24.8062C49.4594 24.9811 50.4656 25.2219 50.8156 25.3532L51.4062 25.594V28.3283C51.4062 29.8377 51.3624 31.0627 51.3187 31.0627C51.2749 31.0627 50.8156 30.8219 50.2906 30.5375C48.3219 29.4219 45.1719 29.0062 43.2469 29.575C42.7875 29.7063 42.1094 30.1219 41.7594 30.4719C41.2344 30.9752 41.125 31.2813 41.125 32.0906C41.125 32.9656 41.2344 33.2063 41.9563 33.8844C42.4156 34.3218 44.1219 35.3281 45.7844 36.1594C49.2844 37.8875 51.0562 39.3532 51.8656 41.1687C52.5875 42.7875 52.6094 46.2 51.9095 47.7312C51.2532 49.175 49.8095 50.6406 48.3876 51.3188C45.3689 52.7406 40.447 52.8719 36.597 51.6031L35.2189 51.1439V45.0627L36.3126 45.8502C37.7344 46.8783 39.5719 47.5127 41.4969 47.6439C43.4219 47.7752 44.8437 47.4249 45.7187 46.5939C46.2656 46.0906 46.375 45.8064 46.375 44.9752C46.375 43.3783 45.4562 42.5471 41.6937 40.7096C38.3687 39.0689 37.3187 38.3252 36.3344 36.8814C34.1469 33.7095 34.8031 28.8533 37.7344 26.644C40.2281 24.7408 44.3625 24.0407 48.5625 24.8062Z"
        fill="currentColor" />
</svg>